<?xml version="1.0" encoding="utf-8"?>
<!-- Generator: Adobe Illustrator 25.2.0, SVG Export Plug-In . SVG Version: 6.00 Build 0)  -->
<svg version="1.1" id="Capa_1" xmlns="http://www.w3.org/2000/svg" xmlns:xlink="http://www.w3.org/1999/xlink" x="0px" y="0px"
	 viewBox="0 0 512 512" style="enable-background:new 0 0 512 512;" xml:space="preserve">
<style type="text/css">
	.st0{fill:#D6A000;}
</style>
<g>
	<path class="st0" d="M334.54,79.21H89.06v77.28l38.39,10.1v179.31l-38.39,10.1v76.78h123.73c-0.41-0.32-3.4-2.91-8.16-13.65
		c0,0-6.16-20.01,7.19-38.97c0,0,6.16-9.48,24.64-12.64l11.29-1.05c0,0,1.54-1.58-0.51-1.58c0,0-16.43-2.11-26.7,0
		c0,0-2.05,0-3.08-3.16c0,0,1.03-7.37,0-10.53c0,0-9.24-16.85-10.27-33.7c0,0-1.03-38.97,4.11-47.4c0,0-10.27,15.8-8.21,44.24
		c0,0,0,22.12,6.16,32.65c0,0-11.29-7.37-19.51-48.45c0,0,4.11,4.21,7.19,3.16l1.03-1.05c0,0-18.48-15.8-18.48-25.28
		c0,0,10.27,5.27,14.37,2.11c0,0-21.56-12.64-23.62-22.12c0,0-5.13-16.85,1.03-23.17c0,0,3.08,14.75,9.24,12.64
		c0,0-6.16-6.32-5.13-18.96c0,0-9.24-17.91-5.13-34.76c0,0-8.21,8.43-3.08,32.65c0,0-10.27-1.05-14.37-12.64
		c0,0-13.35-8.43-11.29-23.17c0,0-13.35-14.75-5.13-30.54c0,0-1.03-4.21,2.05-5.27c0,0,24.64-27.39,48.26-34.76l14.37-7.37
		c0,0,2.05-2.11,6.16-3.16l24.64,4.21l9.24,2.11c0,0,3.08,0,3.08,6.32l1.03,15.8c0,0,0,2.11-2.05,3.16l-4.11,2.11l-2.05,1.05
		l-4.11-1.05c0,0-5.13-7.37-8.21-8.43c0,0-10.27-2.11-11.29-7.37c0,0-3.08-3.16-9.24-3.16l-7.19,4.21l6.16-1.05h1.03l-3.08,6.32
		l-3.08,3.16c0,0-13.35,23.17-21.56,25.28c0,0-3.08,2.11-6.16,2.11h-7.19c0,0-2.05,1.05,0,2.11h17h0.46c0,0,5.13,0,7.19,2.11
		c0,0,4.11,4.21,4.11,6.32v3.16c0,0,0,2.11-9.24,4.21c0,0-4.11,1.05,0,1.05c0,0,8.21-3.16,20.53-2.11c0,0,9.24-1.05,15.4,3.16
		c0,0,5.13,1.05,11.29,13.69c0,0,1.03,4.21,1.03,7.37l-1.03,1.05l-19.51,1.05c0,0-1.03,0-2.05,1.05c0,0-2.05,2.11-2.05,4.21
		c0,0,0,2.11,2.05,1.05c0,0,0-1.05,2.05-2.11l23.1-0.53c0,0,10.27-3.16,13.35-12.64v-17.91c0,0,3.08-14.75,19.51-18.96
		c0,0,17.45-6.32,31.83,7.37c0,0,7.19,4.21,11.29,16.85v20.01c0,0,0,2.11-1.03,3.16c0,0-4.11-1.05-3.08,4.21l2.05,13.69
		c0,0-1.03,2.11-4.11,2.11h-1.03l-1.03,6.32l-3.08,1.05v4.21h-3.08c0,0-3.08,2.11-3.08,5.27c0,0-1.03,4.21-5.13,4.21
		c0,0-3.08-1.05-4.11-2.11c0,0-2.05-4.21-8.21-5.27c0,0-5.13-2.11-6.16,2.11l22.59,33.7c0,0,3.08-1.05,3.08-3.16l-8.21-13.69
		c0,0,4.11-6.32,18.48-3.16c0,0,13.35,3.16,20.53,22.12c0,0,2.05,5.27-2.05,20.01l-2.05,3.16l2.05,1.05c0,0,3.08-3.16,4.11-5.27
		l3.08-5.27c0,0,3.08-4.21,10.27-2.11c0,0,9.24,3.16,11.29,8.43c0,0,2.05,3.16,0,12.64c0,0-1.03,4.21,2.05,1.05
		c0,0,8.21-12.64,21.56-17.91c0,0,15.4-12.64,16.43-17.91c0,0,1.03-8.43-4.11-10.53h-7.19c0,0-3.08-3.16-2.05-4.21v-9.48
		c0,0,2.05-3.16,9.24-6.32l6.16-3.16c0,0,6.16-1.05,8.21,2.11L411,262.2c0,0,3.08,6.32,0,16.85c0,0-5.13-1.05-10.27,23.17
		c0,0-1.03,29.49-27.72,47.4l-6.16,7.37l-2.05,2.11c0,0-2.05,1.05-5.13,0c0,0-9.24-2.11-12.32-2.11c0,0-9.24-2.11-16.43-2.11
		c0,0-10.27-1.05-19.51-4.21c0,0-14.37-6.32-25.67-20.01c0,0-4.11-5.27-6.16-11.59c0,0-1.03,8.43,3.08,14.75
		c0,0-6.16,5.27-14.37,5.27c0,0-7.19,0-14.37-3.16c0,0-9.24-4.21-16.43-18.96c0,0,1.03,17.91,16.43,25.28c0,0,11.29,4.21,21.56,1.05
		l6.16-2.11c0,0,3.08-2.11,5.13,0l7.19,7.37c0,0,2.05,2.11,1.03,8.43l-7.19,21.07c0,0-2.05,6.32,0,13.69
		c0,0,21.42,37.67,26.64,41.04h17.58l90.92-75.77V152.45L334.54,79.21z"/>
</g>
</svg>
